<svg xmlns="http://www.w3.org/2000/svg" xmlns:xlink="http://www.w3.org/1999/xlink" width="333" zoomAndPan="magnify" viewBox="0 0 249.75 38.999999" height="52" preserveAspectRatio="xMidYMid meet" version="1.0"><defs><g/><clipPath id="80d3ffa782"><path d="M 0 0.0195312 L 248 0.0195312 L 248 38.980469 L 0 38.980469 Z M 0 0.0195312 " clip-rule="nonzero"/></clipPath><clipPath id="e3c7c5a59f"><rect x="0" width="248" y="0" height="39"/></clipPath></defs><g clip-path="url(#80d3ffa782)"><g transform="matrix(1, 0, 0, 1, 0, 0.000000000000003129)"><g clip-path="url(#e3c7c5a59f)"><g fill="#ffffff" fill-opacity="1"><g transform="translate(-0.857501, 34.715251)"><g><path d="M 10.953125 -6.203125 L 21.46875 -6.203125 L 21.46875 0 L 2.90625 0 L 2.90625 -32.984375 L 10.953125 -32.984375 Z M 10.953125 -6.203125 "/></g></g></g><g fill="#ffffff" fill-opacity="1"><g transform="translate(17.70241, 34.715251)"><g><path d="M 23.4375 -5.828125 L 11.140625 -5.828125 L 9.15625 0 L 0.75 0 L 12.6875 -32.984375 L 21.984375 -32.984375 L 33.921875 0 L 25.421875 0 Z M 21.375 -12.03125 L 17.296875 -24.109375 L 13.25 -12.03125 Z M 21.375 -12.03125 "/></g></g></g><g fill="#ffffff" fill-opacity="1"><g transform="translate(48.47927, 34.715251)"><g><path d="M 15.265625 -32.984375 C 18.742188 -32.984375 21.78125 -32.289062 24.375 -30.90625 C 26.976562 -29.53125 28.992188 -27.597656 30.421875 -25.109375 C 31.847656 -22.617188 32.5625 -19.742188 32.5625 -16.484375 C 32.5625 -13.265625 31.847656 -10.398438 30.421875 -7.890625 C 28.992188 -5.390625 26.972656 -3.445312 24.359375 -2.0625 C 21.742188 -0.6875 18.710938 0 15.265625 0 L 2.90625 0 L 2.90625 -32.984375 Z M 14.75 -6.953125 C 17.789062 -6.953125 20.15625 -7.78125 21.84375 -9.4375 C 23.539062 -11.101562 24.390625 -13.453125 24.390625 -16.484375 C 24.390625 -19.523438 23.539062 -21.890625 21.84375 -23.578125 C 20.15625 -25.273438 17.789062 -26.125 14.75 -26.125 L 10.953125 -26.125 L 10.953125 -6.953125 Z M 14.75 -6.953125 "/></g></g></g><g fill="#ffffff" fill-opacity="1"><g transform="translate(78.786252, 34.715251)"><g/></g></g><g fill="#ffffff" fill-opacity="1"><g transform="translate(84.894262, 34.715251)"><g><path d="M 32.421875 0 L 24.390625 0 L 10.953125 -20.34375 L 10.953125 0 L 2.90625 0 L 2.90625 -32.984375 L 10.953125 -32.984375 L 24.390625 -12.546875 L 24.390625 -32.984375 L 32.421875 -32.984375 Z M 32.421875 0 "/></g></g></g><g fill="#ffffff" fill-opacity="1"><g transform="translate(116.375951, 34.715251)"><g><path d="M 10.953125 -26.546875 L 10.953125 -19.875 L 21.703125 -19.875 L 21.703125 -13.671875 L 10.953125 -13.671875 L 10.953125 -6.4375 L 23.109375 -6.4375 L 23.109375 0 L 2.90625 0 L 2.90625 -32.984375 L 23.109375 -32.984375 L 23.109375 -26.546875 Z M 10.953125 -26.546875 "/></g></g></g><g fill="#ffffff" fill-opacity="1"><g transform="translate(137.943113, 34.715251)"><g><path d="M 22.875 -16.921875 C 24.789062 -16.503906 26.328125 -15.550781 27.484375 -14.0625 C 28.640625 -12.582031 29.21875 -10.882812 29.21875 -8.96875 C 29.21875 -6.21875 28.253906 -4.035156 26.328125 -2.421875 C 24.398438 -0.804688 21.71875 0 18.28125 0 L 2.90625 0 L 2.90625 -32.984375 L 17.765625 -32.984375 C 21.109375 -32.984375 23.726562 -32.210938 25.625 -30.671875 C 27.519531 -29.140625 28.46875 -27.0625 28.46875 -24.4375 C 28.46875 -22.488281 27.957031 -20.875 26.9375 -19.59375 C 25.925781 -18.3125 24.570312 -17.421875 22.875 -16.921875 Z M 10.953125 -19.640625 L 16.203125 -19.640625 C 17.523438 -19.640625 18.535156 -19.925781 19.234375 -20.5 C 19.941406 -21.082031 20.296875 -21.9375 20.296875 -23.0625 C 20.296875 -24.195312 19.941406 -25.0625 19.234375 -25.65625 C 18.535156 -26.25 17.523438 -26.546875 16.203125 -26.546875 L 10.953125 -26.546875 Z M 16.875 -6.484375 C 18.21875 -6.484375 19.253906 -6.785156 19.984375 -7.390625 C 20.722656 -8.003906 21.09375 -8.890625 21.09375 -10.046875 C 21.09375 -11.210938 20.707031 -12.125 19.9375 -12.78125 C 19.175781 -13.4375 18.125 -13.765625 16.78125 -13.765625 L 10.953125 -13.765625 L 10.953125 -6.484375 Z M 16.875 -6.484375 "/></g></g></g><g fill="#ffffff" fill-opacity="1"><g transform="translate(165.054885, 34.715251)"><g><path d="M 10.8125 -32.984375 L 10.8125 -13.25 C 10.8125 -11.28125 11.296875 -9.757812 12.265625 -8.6875 C 13.234375 -7.625 14.65625 -7.09375 16.53125 -7.09375 C 18.414062 -7.09375 19.859375 -7.625 20.859375 -8.6875 C 21.859375 -9.757812 22.359375 -11.28125 22.359375 -13.25 L 22.359375 -32.984375 L 30.40625 -32.984375 L 30.40625 -13.296875 C 30.40625 -10.347656 29.773438 -7.851562 28.515625 -5.8125 C 27.265625 -3.78125 25.582031 -2.25 23.46875 -1.21875 C 21.351562 -0.1875 18.992188 0.328125 16.390625 0.328125 C 13.796875 0.328125 11.472656 -0.175781 9.421875 -1.1875 C 7.367188 -2.207031 5.742188 -3.742188 4.546875 -5.796875 C 3.359375 -7.847656 2.765625 -10.347656 2.765625 -13.296875 L 2.765625 -32.984375 Z M 10.8125 -32.984375 "/></g></g></g><g fill="#ffffff" fill-opacity="1"><g transform="translate(194.328126, 34.715251)"><g><path d="M 10.953125 -6.203125 L 21.46875 -6.203125 L 21.46875 0 L 2.90625 0 L 2.90625 -32.984375 L 10.953125 -32.984375 Z M 10.953125 -6.203125 "/></g></g></g><g fill="#ffffff" fill-opacity="1"><g transform="translate(212.888037, 34.715251)"><g><path d="M 23.4375 -5.828125 L 11.140625 -5.828125 L 9.15625 0 L 0.75 0 L 12.6875 -32.984375 L 21.984375 -32.984375 L 33.921875 0 L 25.421875 0 Z M 21.375 -12.03125 L 17.296875 -24.109375 L 13.25 -12.03125 Z M 21.375 -12.03125 "/></g></g></g></g></g></g></svg>