<svg xmlns="http://www.w3.org/2000/svg" xmlns:xlink="http://www.w3.org/1999/xlink" viewBox="0 0 2384.84 1437.58"><defs><style>.cls-1{fill:none;}.cls-2{clip-path:url(#clip-path);}.cls-3{clip-path:url(#clip-path-2);}.cls-4{clip-path:url(#clip-path-3);}</style><clipPath id="clip-path" transform="translate(-0.75 -598.26)"><rect class="cls-1" x="0.2" y="597.63" width="2386.67" height="1438.67"/></clipPath><clipPath id="clip-path-2" transform="translate(-0.75 -598.26)"><rect class="cls-1" x="411.87" y="390.22" width="1929.49" height="1969.48" transform="translate(-565.05 1499.62) rotate(-48.64)"/></clipPath><clipPath id="clip-path-3" transform="translate(-0.75 -598.26)"><rect class="cls-1" x="411.99" y="390.08" width="1929.49" height="1969.48" transform="translate(-564.9 1499.66) rotate(-48.64)"/></clipPath></defs><title>Asset 2</title><g id="Layer_2" data-name="Layer 2"><g id="Layer_1-2" data-name="Layer 1"><g class="cls-2"><g class="cls-3"><g class="cls-4"><g class="cls-4"><path d="M1589.71,1167.36c-24.32-5.83-49.2,8.65-55,33s8.66,49.2,33,55,49.21-8.65,55-33C1629.39,1197.09,1614,1173.19,1589.71,1167.36ZM723.12,1665.52c-218.83-137.22-407-256.12-581.52-233.07L.75,1448.76l98.53-102.08c483.2-499.63,938.3-674.08,1235-731.6,101.34-14.72,203.26-20.27,304-14.68C1740,605,1841.7,625.27,1936.05,659.83c95.31,35.41,186.06,85.86,257,158.75,71.85,71.91,120.14,164.68,133.81,263.32-21.87-97.2-77-182.16-150.13-244.78s-163.26-103.89-255.19-129.39c-92.78-24.52-189.27-35-284.94-32.59s-191.5,16.75-284.17,37.37C1086.74,764.39,687.25,915,253.22,1333.23c167.4,24.4,334.33,128,522.5,247,246.67,154.8,526.92,330.51,871.22,354.74,279.48,19.12,486.22-62.18,582.49-228.6,80.53-138.71,70-317.71-28.75-465.31-127.52-193.69-364.59-284.61-647.89-248.21-289.8,35.89-559.64,153.44-714.13,230.5,132.53,26.61,286.66,74,437.12,121.53,268.89,84.3,572.5,178.36,665.05,112.6,10.54-8,26.12-23.77,27.22-64.38.43-22.14,1.34-80.24-117.73-112.31-43.38-15.67-91.92-25.5-142.06-31.53-10.27-2.11-20.42-2.39-30.57-2.66-16.91,52.66-71.2,82.83-125.48,69.69a105.26,105.26,0,1,1,51.49-204.13c35.57,8.8,60.21,34,72.35,65.44l34.87-2.22c53.35-1.54,107.78-.38,164.64,9.83,160.37,44.19,193.13,138.85,192.18,210.78-1.45,78.41-38.27,122.21-68.19,144.37-133,96-420.72,5.5-754.39-97.71-207.78-65.14-424-132.5-568-136.27l-166.11-4.2,143.39-92c16.8-11.2,420.24-258.84,888.22-318,318.06-40.45,595.93,69.07,743.8,292.8,91.72,137.91,120.37,298.26,83.49,442.49a497.63,497.63,0,0,1-51.75,127.67c-68.11,116.73-245.8,306.75-676.09,277.84C1271.16,2009.43,980.29,1826.11,723.12,1665.52Z" transform="translate(-0.75 -598.26)"/></g></g></g></g></g></g></svg>