<?xml version="1.0" encoding="UTF-8" standalone="no"?><!DOCTYPE svg PUBLIC "-//W3C//DTD SVG 1.1//EN" "http://www.w3.org/Graphics/SVG/1.1/DTD/svg11.dtd"><svg width="100%" height="100%" viewBox="0 0 9937 5990" version="1.1" xmlns="http://www.w3.org/2000/svg" xmlns:xlink="http://www.w3.org/1999/xlink" xml:space="preserve" xmlns:serif="http://www.serif.com/" style="fill-rule:evenodd;clip-rule:evenodd;stroke-linejoin:round;stroke-miterlimit:2;"><g id="Layer_2"><g id="Layer_1-2"><g><g><clipPath id="_clip1"><path d="M5309.296,-2492.283l6159.324,5422.537l-5312.433,6034.259l-6159.324,-5422.537l5312.433,-6034.259Z"/></clipPath><g clip-path="url(#_clip1)"><g><clipPath id="_clip2"><path d="M5309.814,-2492.877l6159.324,5422.537l-5312.433,6034.259l-6159.324,-5422.537l5312.433,-6034.259Z"/></clipPath><g clip-path="url(#_clip2)"><g><clipPath id="_clip3"><path d="M5309.814,-2492.877l6159.324,5422.537l-5312.433,6034.259l-6159.324,-5422.537l5312.433,-6034.259Z"/></clipPath><g clip-path="url(#_clip3)"><path d="M6620.667,2371.25c-101.333,-24.292 -205,36.042 -229.167,137.5c-24.167,101.458 36.083,205 137.5,229.167c101.417,24.167 205.042,-36.042 229.167,-137.5c27.833,-105.292 -36.292,-204.875 -137.5,-229.167Zm-3610.792,2075.667c-911.792,-571.75 -1695.833,-1067.167 -2423,-971.125l-586.875,67.958l410.542,-425.333c2013.333,-2081.792 3909.583,-2808.667 5145.833,-3048.333c422.25,-61.333 846.917,-84.458 1266.667,-61.167c423.833,19.167 847.583,103.625 1240.708,247.625c397.125,147.542 775.25,357.75 1070.833,661.458c299.375,299.625 500.583,686.167 557.542,1097.167c-91.125,-405 -320.833,-759 -625.542,-1019.917c-304.708,-260.917 -680.25,-432.875 -1063.292,-539.125c-386.583,-102.167 -788.625,-145.833 -1187.25,-135.792c-398.625,10.042 -797.917,69.792 -1184.042,155.708c-1107.042,216.167 -2771.583,843.708 -4580.042,2586.333c697.5,101.667 1393.042,533.333 2177.083,1029.167c1027.792,645 2195.5,1377.125 3630.083,1478.083c1164.5,79.667 2025.917,-259.083 2427.042,-952.5c335.542,-577.958 291.667,-1323.792 -119.792,-1938.792c-531.333,-807.042 -1519.125,-1185.875 -2699.542,-1034.208c-1207.5,149.542 -2331.833,639.333 -2975.542,960.417c552.208,110.875 1194.417,308.333 1821.333,506.375c1120.375,351.25 2385.417,743.167 2771.042,469.167c43.917,-33.333 108.833,-99.042 113.417,-268.25c1.792,-92.25 5.583,-334.333 -490.542,-467.958c-180.75,-65.292 -383,-106.25 -591.917,-131.375c-42.792,-8.792 -85.083,-9.958 -127.375,-11.083c-70.458,219.417 -296.667,345.125 -522.833,290.375c-194.172,-48.978 -331.32,-225.017 -331.32,-425.271c0,-240.604 197.987,-438.591 438.591,-438.591c36.169,0 72.2,4.474 107.271,13.32c148.208,36.667 250.875,141.667 301.458,272.667l145.292,-9.25c222.292,-6.417 449.083,-1.583 686,40.958c668.208,184.125 804.708,578.542 800.75,878.25c-6.042,326.708 -159.458,509.208 -284.125,601.542c-554.167,400 -1753,22.917 -3143.292,-407.125c-865.75,-271.417 -1766.667,-552.083 -2366.667,-567.792l-692.125,-17.5l597.458,-383.333c70,-46.667 1751,-1078.5 3700.917,-1325c1325.25,-168.542 2483.042,287.792 3099.167,1220c382.167,574.625 501.542,1242.75 347.875,1843.708c-46.865,186.458 -119.436,365.494 -215.625,531.958c-283.792,486.375 -1024.167,1278.125 -2817.042,1157.667c-1545.625,-98.125 -2757.583,-861.958 -3829.125,-1531.083Z" style="fill:#fff;fill-rule:nonzero;"/></g></g></g></g></g></g></g></g></g></svg>